<?xml version="1.0" encoding="utf-8"?>
<!-- Generator: Adobe Illustrator 25.0.1, SVG Export Plug-In . SVG Version: 6.00 Build 0)  -->
<svg version="1.1" id="Layer_1" xmlns="http://www.w3.org/2000/svg" xmlns:xlink="http://www.w3.org/1999/xlink" x="0px" y="0px"
	 viewBox="0 0 78 78" style="enable-background:new 0 0 78 78;" xml:space="preserve">
<style type="text/css">
	.st0{fill:#F36C3D;}
	.st1{fill:#FFFFFF;}
</style>
<g>
	<rect class="st0" width="78" height="78"/>
	<g>
		<g>
			<path class="st1" d="M5.8,58.2h0.4v12.3h5.7v0.4h-6V58.2z M13.7,58.2h0.4v12.7h-0.4v-9.3h-3.3v-0.4h3.3V58.2z M16.8,58.2l0,12.7
				h-0.4l0-12.7H16.8z"/>
		</g>
		<g>
			<path class="st1" d="M19.9,64.9l0-6.7l0.4,0l0,3H26l0-3l0.4,0l0,6.7H19.9z M20.3,61.6l0,2.8H26l0-2.8H20.3z M20.3,66.7v3.8h10.3
				v0.4H19.9v-4.2H20.3z M30.7,58.2v9.3h-0.4v-6h-3v-0.4h3v-3H30.7z"/>
		</g>
		<g>
			<path class="st1" d="M39.6,58.6v6.9c0,0.5,0.1,1,0.2,1.5c0.1,0.5,0.3,0.9,0.4,1.3c0.2,0.4,0.4,0.8,0.6,1.2c0.2,0.4,0.5,0.7,0.8,1
				l-0.2,0.2c-0.2-0.2-0.4-0.4-0.6-0.6c-0.2-0.2-0.4-0.5-0.6-0.8c-0.2-0.3-0.3-0.6-0.5-1c-0.1-0.4-0.3-0.7-0.4-1.1
				c-0.1,0.7-0.4,1.3-0.7,1.9c-0.3,0.6-0.7,1.1-1.1,1.6c-0.4-0.5-0.8-1-1-1.6c-0.3-0.6-0.5-1.2-0.6-1.9c-0.1,0.4-0.2,0.8-0.4,1.1
				c-0.1,0.4-0.3,0.7-0.5,1c-0.2,0.3-0.4,0.6-0.6,0.8c-0.2,0.2-0.4,0.5-0.6,0.6l-0.2-0.2c0.3-0.3,0.6-0.6,0.8-1
				c0.2-0.4,0.5-0.7,0.6-1.2c0.2-0.4,0.3-0.9,0.4-1.3c0.1-0.5,0.2-1,0.2-1.5v-6.9H34v-0.4h7.5v0.4H39.6z M37.7,70.1
				c0.4-0.6,0.8-1.2,1.1-2c0.3-0.8,0.4-1.6,0.4-2.5v-6.9h-3v6.9c0,0.9,0.1,1.7,0.4,2.5C36.9,68.8,37.3,69.5,37.7,70.1z M45.5,58.2
				h0.4v12.6h-0.4v-9.3H43l0,9.3h-0.4l0-12.7H43v3h2.4V58.2z"/>
		</g>
		<g>
			<path class="st1" d="M59.3,70.5v0.4H49v-0.4H59.3z M49,58.6v-0.3h10.3V67h-0.4v-8.5H49z"/>
		</g>
		<g>
			<path class="st1" d="M70,64.6h-7.6v-3.4h7.2v-2.6h-7.3v-0.4H70v3.3h-7.2v2.7H70V64.6z M73.2,66.4v4.5H62.4v-4.5H73.2z M62.8,70.5
				h10v-3.8h-10V70.5z M72.8,58.2h0.4l0,7.4h-0.4L72.8,58.2z"/>
		</g>
	</g>
	<g>
		<path class="st1" d="M20.2,6.4h1.4v42.8h19.7v1.3h-21V6.4z M47.8,6.4h1.4v44h-1.4V18.1H36.3v-1.3h11.5V6.4z M58.5,6.4l0,44h-1.4
			l0-44H58.5z"/>
	</g>
</g>
</svg>
