<?xml version="1.0" encoding="utf-8"?>
<!-- Generator: Adobe Illustrator 25.0.1, SVG Export Plug-In . SVG Version: 6.00 Build 0)  -->
<svg version="1.1" id="Layer_1" xmlns="http://www.w3.org/2000/svg" xmlns:xlink="http://www.w3.org/1999/xlink" x="0px" y="0px"
	 viewBox="0 0 76.7 76.7" style="enable-background:new 0 0 76.7 76.7;" xml:space="preserve">
<style type="text/css">
	.st0{fill:#F36C3D;}
	.st1{fill:#FFFFFF;}
</style>
<g>
	<g>
		<path class="st0" d="M3.6,8.4h1.8v57.5h26.4v1.7H3.6V8.4z M40.6,8.4h1.8v59.1h-1.8V24.1H25.1v-1.7h15.5V8.4z M55,8.4l0,59.1h-1.8
			l0-59.1H55z"/>
	</g>
	<g>
		<path class="st0" d="M67.8,53.1l-2.7-32.1c0,0,0-0.1,0-0.1V9.7c0-0.8,0.7-1.5,1.5-1.5H72c0.8,0,1.5,0.7,1.5,1.5v11.1
			c0,0,0,0.1,0,0.1l-2.7,32.1c-0.1,0.8-0.7,1.3-1.5,1.3l0,0C68.5,54.4,67.9,53.8,67.8,53.1z M65.1,63.9v-2.1c0-1.7,1.4-3.1,3.1-3.1
			h2.1c1.7,0,3.1,1.4,3.1,3.1v2.1c0,1.7-1.4,3.1-3.1,3.1h-2.1C66.5,67.1,65.1,65.7,65.1,63.9z"/>
	</g>
</g>
</svg>
