<?xml version="1.0" encoding="utf-8"?>
<!-- Generator: Adobe Illustrator 25.0.1, SVG Export Plug-In . SVG Version: 6.00 Build 0)  -->
<svg version="1.1" id="Layer_1" xmlns="http://www.w3.org/2000/svg" xmlns:xlink="http://www.w3.org/1999/xlink" x="0px" y="0px"
	 viewBox="0 0 541.3 101.7" style="enable-background:new 0 0 541.3 101.7;" xml:space="preserve">
<style type="text/css">
	.st0{fill:#F36C3D;}
</style>
<g>
	<path class="st0" d="M0,0h3.1v98.8h45.4v2.9H0V0z M63.7,0h3.1v101.7h-3.1V27H37.1v-2.9h26.6V0z M88.4,0l0,101.7h-3.1L85.3,0H88.4z"
		/>
</g>
<g>
	<path class="st0" d="M113.5,53.6l0-53.5l3.2-0.1l0,24.1h45.4l0-24.1l3.1,0.1l0,53.5H113.5z M116.7,27l0,22.9h45.4l0-22.9H116.7z
		 M116.8,68.1v30.7h83.1v2.9h-86.3V68.1H116.8z M199.8,0v75.1h-3.1v-48h-24.3v-3h24.3V0H199.8z"/>
</g>
<g>
	<path class="st0" d="M271.7,3v55.6c0,4.3,0.4,8.3,1.3,12.1c0.9,3.8,2,7.4,3.5,10.8c1.5,3.4,3.2,6.5,5.2,9.4c2,2.9,4.1,5.5,6.4,7.8
		l-2,1.7c-1.5-1.4-3-3.1-4.6-5.1c-1.6-2-3.1-4.2-4.5-6.6c-1.4-2.4-2.8-5.1-3.9-8c-1.2-2.9-2.1-6-2.8-9.2c-1.1,5.3-2.8,10.4-5.2,15.2
		c-2.4,4.8-5.2,9-8.5,12.7c-3.3-3.7-6.1-8-8.4-12.7c-2.4-4.8-4.1-9.8-5.2-15.2c-0.7,3.3-1.6,6.3-2.8,9.2c-1.2,2.9-2.5,5.6-4,8
		c-1.5,2.4-3,4.6-4.6,6.6c-1.6,2-3.1,3.7-4.5,5.1l-2-1.7c2.3-2.3,4.5-4.9,6.4-7.8c2-2.9,3.7-6,5.2-9.4c1.5-3.4,2.6-7,3.5-10.8
		c0.9-3.8,1.3-7.9,1.3-12.1V3h-15.1V0.1h60.4V3H271.7z M256.4,95c3.6-4.6,6.5-10,8.8-16.1c2.3-6.1,3.4-12.8,3.4-20.1V3h-24.3v55.8
		c0,7.3,1.1,14,3.4,20.1C250.1,85,253,90.4,256.4,95z M318.7,0.1h3.1v101.3h-3.1V27h-19.6l0,74.8h-3.1l0-101.7h3.1v24h19.6V0.1z"/>
</g>
<g>
	<path class="st0" d="M429.7,98.8v2.9h-82.7v-2.9H429.7z M346.9,2.8V0h82.7v70.9h-3.1V2.8H346.9z"/>
</g>
<g>
	<path class="st0" d="M516.2,51.6H455V24.1h58.1V3h-58.3V0.1h61.4V27h-58.1v21.7h58.1V51.6z M541.3,65.8v36h-86.5v-36H541.3z
		 M458,98.8h80.2V68.7H458V98.8z M538.2,0.1h3.1l0,59.2h-3.1L538.2,0.1z"/>
</g>
<g>
	<g>
		<path class="st0" d="M87.4-219.1h0.4v12.1h5.6v0.4h-5.9V-219.1z M95.2-219.1h0.4v12.5h-0.4v-9.2h-3.3v-0.4h3.3V-219.1z
			 M98.2-219.1l0,12.5h-0.4l0-12.5H98.2z"/>
	</g>
	<g>
		<path class="st0" d="M101.3-212.5l0-6.5l0.4,0l0,2.9h5.6l0-2.9l0.4,0l0,6.5H101.3z M101.7-215.8l0,2.8h5.6l0-2.8H101.7z
			 M101.7-210.7v3.8h10.2v0.4h-10.6v-4.1H101.7z M111.9-219.1v9.2h-0.4v-5.9h-3v-0.4h3v-2.9H111.9z"/>
	</g>
	<g>
		<path class="st0" d="M120.7-218.7v6.8c0,0.5,0.1,1,0.2,1.5c0.1,0.5,0.2,0.9,0.4,1.3c0.2,0.4,0.4,0.8,0.6,1.1
			c0.2,0.4,0.5,0.7,0.8,1l-0.2,0.2c-0.2-0.2-0.4-0.4-0.6-0.6c-0.2-0.2-0.4-0.5-0.6-0.8c-0.2-0.3-0.3-0.6-0.5-1
			c-0.1-0.4-0.3-0.7-0.3-1.1c-0.1,0.7-0.3,1.3-0.6,1.9c-0.3,0.6-0.6,1.1-1,1.6c-0.4-0.5-0.7-1-1-1.6c-0.3-0.6-0.5-1.2-0.6-1.9
			c-0.1,0.4-0.2,0.8-0.3,1.1c-0.1,0.4-0.3,0.7-0.5,1c-0.2,0.3-0.4,0.6-0.6,0.8c-0.2,0.2-0.4,0.4-0.5,0.6l-0.2-0.2
			c0.3-0.3,0.5-0.6,0.8-1c0.2-0.4,0.5-0.7,0.6-1.1c0.2-0.4,0.3-0.9,0.4-1.3c0.1-0.5,0.2-1,0.2-1.5v-6.8h-1.8v-0.4h7.4v0.4H120.7z
			 M118.8-207.4c0.4-0.6,0.8-1.2,1.1-2c0.3-0.7,0.4-1.6,0.4-2.5v-6.8h-3v6.8c0,0.9,0.1,1.7,0.4,2.5C118-208.7,118.4-208,118.8-207.4
			z M126.4-219.1h0.4v12.4h-0.4v-9.1H124l0,9.2h-0.4l0-12.5h0.4v2.9h2.4V-219.1z"/>
	</g>
	<g>
		<path class="st0" d="M140-207v0.4h-10.1v-0.4H140z M129.9-218.7v-0.3H140v8.7h-0.4v-8.3H129.9z"/>
	</g>
	<g>
		<path class="st0" d="M150.6-212.8h-7.5v-3.4h7.1v-2.6h-7.1v-0.4h7.5v3.3h-7.1v2.7h7.1V-212.8z M153.7-211v4.4h-10.6v-4.4H153.7z
			 M143.5-207h9.8v-3.7h-9.8V-207z M153.3-219.1h0.4l0,7.2h-0.4L153.3-219.1z"/>
	</g>
</g>
<g>
	<path class="st0" d="M101.6-270.1h1.3v42.1h19.3v1.2h-20.7V-270.1z M128.7-270.1h1.3v43.3h-1.3v-31.8h-11.3v-1.2h11.3V-270.1z
		 M139.2-270.1l0,43.3h-1.3l0-43.3H139.2z"/>
</g>
<g>
	<g>
		<path class="st0" d="M-25.4-268h1.8v57.5H2.9v1.7h-28.2V-268z M11.6-268h1.8v59.1h-1.8v-43.5H-3.8v-1.7h15.5V-268z M26-268l0,59.1
			h-1.8l0-59.1H26z"/>
	</g>
	<g>
		<path class="st0" d="M38.9-223.3l-2.7-32.1c0,0,0-0.1,0-0.1v-11.1c0-0.8,0.7-1.5,1.5-1.5h5.5c0.8,0,1.5,0.7,1.5,1.5v11.1
			c0,0,0,0.1,0,0.1l-2.7,32.1c-0.1,0.8-0.7,1.3-1.5,1.3h0C39.6-222,38.9-222.6,38.9-223.3z M36.1-212.4v-2.1c0-1.7,1.4-3.1,3.1-3.1
			h2.1c1.7,0,3.1,1.4,3.1,3.1v2.1c0,1.7-1.4,3.1-3.1,3.1h-2.1C37.6-209.3,36.1-210.7,36.1-212.4z"/>
	</g>
</g>
</svg>
