<?xml version="1.0" encoding="utf-8"?>
<!-- Generator: Adobe Illustrator 25.0.1, SVG Export Plug-In . SVG Version: 6.00 Build 0)  -->
<svg version="1.1" id="Layer_1" xmlns="http://www.w3.org/2000/svg" xmlns:xlink="http://www.w3.org/1999/xlink" x="0px" y="0px"
	 viewBox="0 0 541.3 101.8" style="enable-background:new 0 0 541.3 101.8;" xml:space="preserve">
<style type="text/css">
	.st0{fill:#F36C3D;}
</style>
<g>
	<g>
		<path class="st0" d="M0,0h3.1v98.8h45.4v2.9H0V0z M63.7,0h3.1v101.7h-3.1V27H37.1v-2.9h26.6C63.7,24.1,63.7,0,63.7,0z M88.4,0
			v101.7h-3.1V0H88.4z"/>
	</g>
	<g>
		<path class="st0" d="M113.5,53.6V0.1l3.2-0.1v24.1h45.4V0l3.1,0.1v53.5H113.5z M116.7,27v22.9h45.4V27C162.1,27,116.7,27,116.7,27
			z M116.8,68.1v30.7h83.1v2.9h-86.3V68.1H116.8z M199.8,0v75.1h-3.1v-48h-24.3v-3h24.3V0H199.8z"/>
	</g>
	<g>
		<path class="st0" d="M271.7,3v55.6c0,4.3,0.4,8.3,1.3,12.1c0.9,3.8,2,7.4,3.5,10.8s3.2,6.5,5.2,9.4s4.1,5.5,6.4,7.8l-2,1.7
			c-1.5-1.4-3-3.1-4.6-5.1s-3.1-4.2-4.5-6.6s-2.8-5.1-3.9-8c-1.2-2.9-2.1-6-2.8-9.2c-1.1,5.3-2.8,10.4-5.2,15.2
			c-2.4,4.8-5.2,9-8.5,12.7c-3.3-3.7-6.1-8-8.4-12.7c-2.4-4.8-4.1-9.8-5.2-15.2c-0.7,3.3-1.6,6.3-2.8,9.2c-1.2,2.9-2.5,5.6-4,8
			s-3,4.6-4.6,6.6s-3.1,3.7-4.5,5.1l-2-1.7c2.3-2.3,4.5-4.9,6.4-7.8c2-2.9,3.7-6,5.2-9.4s2.6-7,3.5-10.8s1.3-7.9,1.3-12.1V3h-15.1
			V0.1h60.4V3H271.7z M256.4,95c3.6-4.6,6.5-10,8.8-16.1s3.4-12.8,3.4-20.1V3h-24.3v55.8c0,7.3,1.1,14,3.4,20.1
			C250.1,85,253,90.4,256.4,95z M318.7,0.1h3.1v101.3h-3.1V27h-19.6v74.8H296V0.1h3.1v24h19.6V0.1z"/>
	</g>
	<g>
		<path class="st0" d="M429.7,98.8v2.9H347v-2.9H429.7z M346.9,2.8V0h82.7v70.9h-3.1V2.8H346.9z"/>
	</g>
	<g>
		<path class="st0" d="M516.2,51.6H455V24.1h58.1V3h-58.3V0.1h61.4V27h-58.1v21.7h58.1V51.6z M541.3,65.8v36h-86.5v-36H541.3z
			 M458,98.8h80.2V68.7H458V98.8z M538.2,0.1h3.1v59.2h-3.1V0.1z"/>
	</g>
</g>
</svg>
