<svg xmlns="http://www.w3.org/2000/svg" xmlns:xlink="http://www.w3.org/1999/xlink" x="0px" y="0px"
	 viewBox="0 0 76.7 76.7" style="enable-background:new 0 0 76.7 76.7;" xml:space="preserve">

<g>
	<g>
		<path  fill="#F36C3D"  d="M5.7,57.3h0.4v12.1h5.6v0.4H5.7V57.3z M13.5,57.3h0.4v12.5h-0.4v-9.2h-3.3v-0.4h3.3V57.3z M16.5,57.3l0,12.5
			h-0.4l0-12.5H16.5z"/>
	</g>
	<g>
		<path fill="#F36C3D"  d="M19.6,63.8l0-6.5l0.4,0l0,2.9h5.6l0-2.9l0.4,0l0,6.5H19.6z M20,60.6l0,2.8h5.6l0-2.8H20z M20,65.6v3.8h10.2
			v0.4H19.6v-4.1H20z M30.2,57.3v9.2h-0.4v-5.9h-3v-0.4h3v-2.9H30.2z"/>
	</g>
	<g>
		<path fill="#F36C3D"  d="M39,57.7v6.8c0,0.5,0.1,1,0.2,1.5c0.1,0.5,0.2,0.9,0.4,1.3c0.2,0.4,0.4,0.8,0.6,1.1c0.2,0.4,0.5,0.7,0.8,1
			l-0.2,0.2c-0.2-0.2-0.4-0.4-0.6-0.6c-0.2-0.2-0.4-0.5-0.6-0.8c-0.2-0.3-0.3-0.6-0.5-1c-0.1-0.4-0.3-0.7-0.3-1.1
			c-0.1,0.7-0.3,1.3-0.6,1.9c-0.3,0.6-0.6,1.1-1,1.6c-0.4-0.5-0.7-1-1-1.6c-0.3-0.6-0.5-1.2-0.6-1.9c-0.1,0.4-0.2,0.8-0.3,1.1
			c-0.1,0.4-0.3,0.7-0.5,1c-0.2,0.3-0.4,0.6-0.6,0.8c-0.2,0.2-0.4,0.4-0.5,0.6l-0.2-0.2c0.3-0.3,0.5-0.6,0.8-1
			c0.2-0.4,0.5-0.7,0.6-1.1c0.2-0.4,0.3-0.9,0.4-1.3c0.1-0.5,0.2-1,0.2-1.5v-6.8h-1.8v-0.4h7.4v0.4H39z M37.1,68.9
			c0.4-0.6,0.8-1.2,1.1-2c0.3-0.7,0.4-1.6,0.4-2.5v-6.8h-3v6.8c0,0.9,0.1,1.7,0.4,2.5C36.3,67.7,36.7,68.4,37.1,68.9z M44.7,57.3
			h0.4v12.4h-0.4v-9.1h-2.4l0,9.2h-0.4l0-12.5h0.4v2.9h2.4V57.3z"/>
	</g>
	<g>
		<path  fill="#F36C3D"  d="M58.3,69.4v0.4H48.2v-0.4H58.3z M48.2,57.6v-0.3h10.1V66h-0.4v-8.3H48.2z"/>
	</g>
	<g>
		<path  fill="#F36C3D"  d="M68.9,63.6h-7.5v-3.4h7.1v-2.6h-7.1v-0.4h7.5v3.3h-7.1v2.7h7.1V63.6z M72,65.3v4.4H61.4v-4.4H72z M61.8,69.4
			h9.8v-3.7h-9.8V69.4z M71.6,57.3H72l0,7.2h-0.4L71.6,57.3z"/>
	</g>
</g>
<g>
	<path  fill="#F36C3D"  d="M19.9,6.3h1.3v42.1h19.3v1.2H19.9V6.3z M47,6.3h1.3v43.3H47V17.8H35.7v-1.2H47V6.3z M57.6,6.3l0,43.3h-1.3
		l0-43.3H57.6z"/>
</g>
</svg>
